<svg xmlns="http://www.w3.org/2000/svg" width="37.677" height="2484" viewBox="0 0 37.677 2484">
    <defs>
        <clipPath id="clip-path">
            <path id="Path_19" d="M16.062 0H.938A.938.938 0 0 0 0 .938v15.124A.938.938 0 0 0 .938 17h15.124a.938.938 0 0 0 .938-.938V.938A.938.938 0 0 0 16.062 0zm0 0" class="cls-1" transform="translate(30 2083)"/>
        </clipPath>
        <clipPath id="clip-path-2">
            <circle id="Ellipse_426" cx="6" cy="6" r="6" class="cls-2" transform="translate(46 2454)"/>
        </clipPath>
        <style>
            .cls-1{fill:#444}.cls-2,.cls-20{fill:#fff}.cls-14,.cls-23,.cls-25,.cls-27,.cls-3{fill:none}.cls-4{fill:#777}.cls-25{stroke-width:2px}.cls-10{fill:#fafafa}.cls-11{fill:#222}.cls-14{stroke:#707070}.cls-18{fill:#f1f1f1}.cls-20{stroke:#d9d9d9}.cls-22{fill:#00b1cd}.cls-23,.cls-25{stroke:#333}.cls-24{fill:#333}.cls-27{stroke:#55c8d0;stroke-miterlimit:10}.cls-29{fill:#212121}.cls-31{fill:#d80027}.cls-36{fill:#f5f5f5}.cls-37{fill:#41479b}.cls-39{stroke:none}
        </style>
    </defs>
    <g id="Group_2544" transform="translate(-13 -24)">
        <g id="Group_2543">
            <g id="Component_1_1" transform="translate(23 24)">
                <g id="Path_32">
                    <path id="Path_6016" d="M0 0h14.612v20l-7.125-5.943L0 20z" class="cls-3"/>
                    <path id="Path_6017" d="M1 1v16.93l5.866-4.656.637-.506.625.522 5.484 4.574V1H1M0 0h14.612v20l-7.125-5.943L0 20z" class="cls-2"/>
                </g>
            </g>
            <g id="Component_5_1" transform="translate(23 224)">
                <g id="Path_2207">
                    <path id="Path_6018" d="M.5 18.965V.5h13.612v18.432l-6.3-5.259-.313-.26-.318.253z" class="cls-2"/>
                    <path id="Path_6019" d="M1 1v16.93l5.866-4.656.637-.506.625.522 5.484 4.574V1H1M0 0h14.612v20l-7.125-5.943L0 20z" class="cls-2"/>
                </g>
            </g>
            <g id="Component_3_1" transform="translate(23 124)">
                <g id="Path_2206">
                    <path id="Path_6020" d="M0 0h14.612v20l-7.125-5.943L0 20z" class="cls-3"/>
                    <path id="Path_6021" d="M1 1v16.93l5.866-4.656.637-.506.625.522 5.484 4.574V1H1M0 0h14.612v20l-7.125-5.943L0 20z" class="cls-4"/>
                </g>
            </g>
            <g id="Component_6_1" transform="translate(23 274)">
                <path id="Path_2208" d="M0 0h14.612v20l-7.125-5.943L0 20z" class="cls-4"/>
            </g>
            <g id="Component_2_1" transform="translate(21 74)">
                <path id="Path_2204" d="M18.06 16.137a2.924 2.924 0 0 0-1.968.773l-7.158-4.167a3.287 3.287 0 0 0 .09-.7 3.287 3.287 0 0 0-.09-.7l7.078-4.127a3 3 0 1 0-.964-2.2 3.287 3.287 0 0 0 .09.7L8.06 9.841a3.012 3.012 0 1 0 0 4.4l7.149 4.177a2.832 2.832 0 0 0-.08.653 2.932 2.932 0 1 0 2.932-2.932z" class="cls-2" transform="translate(-3 -2)"/>
            </g>
            <g id="Component_4_16" transform="translate(21 174)">
                <path id="Path_2205" d="M18.06 16.137a2.924 2.924 0 0 0-1.968.773l-7.158-4.167a3.287 3.287 0 0 0 .09-.7 3.287 3.287 0 0 0-.09-.7l7.078-4.127a3 3 0 1 0-.964-2.2 3.287 3.287 0 0 0 .09.7L8.06 9.841a3.012 3.012 0 1 0 0 4.4l7.149 4.177a2.832 2.832 0 0 0-.08.653 2.932 2.932 0 1 0 2.932-2.932z" class="cls-4" transform="translate(-3 -2)"/>
            </g>
            <g id="camera" transform="translate(24 324)">
                <g id="Group_415">
                    <g id="Group_414">
                        <path id="Path_34" d="M11.977 46.319a1.332 1.332 0 0 0-.977-.412H9.045v-.024a1.057 1.057 0 0 0-.318-.765 1.078 1.078 0 0 0-.765-.318H4.428a1.086 1.086 0 0 0-1.1 1.083v.024H1.39a1.332 1.332 0 0 0-.977.412A1.4 1.4 0 0 0 0 47.3v5.865a1.332 1.332 0 0 0 .412.977 1.4 1.4 0 0 0 .977.412H11a1.332 1.332 0 0 0 .977-.412 1.4 1.4 0 0 0 .412-.977V47.3a1.332 1.332 0 0 0-.412-.981zm-.2 6.842h-.012a.764.764 0 0 1-.765.765H1.39a.764.764 0 0 1-.765-.765V47.3a.764.764 0 0 1 .765-.765h2.273a.317.317 0 0 0 .318-.318v-.342a.443.443 0 0 1 .459-.459h3.521a.443.443 0 0 1 .459.459v.342a.317.317 0 0 0 .318.318h2.273a.764.764 0 0 1 .765.765z" class="cls-2" transform="translate(0 -44.8)"/>
                        <path id="Path_35" d="M114.9 130.8a2.9 2.9 0 1 0 2.049.848 2.9 2.9 0 0 0-2.049-.848zm1.6 4.511a2.275 2.275 0 0 1-3.2 0 2.251 2.251 0 0 1-.66-1.6 2.3 2.3 0 0 1 .66-1.6 2.251 2.251 0 0 1 1.6-.66 2.3 2.3 0 0 1 1.6.66 2.251 2.251 0 0 1 .66 1.6 2.2 2.2 0 0 1-.66 1.6z" class="cls-2" transform="translate(-108.702 -128.268)"/>
                        <circle id="Ellipse_27" cx=".577" cy=".577" r=".577" class="cls-2" transform="translate(9.81 2.52)"/>
                    </g>
                </g>
            </g>
            <g id="Component_7_5" transform="translate(14 364)">
                <g id="Ellipse_6" fill="none" stroke="#fff" stroke-width="2px">
                    <circle cx="16.5" cy="16.5" r="16.5" class="cls-39"/>
                    <circle cx="16.5" cy="16.5" r="15.5" class="cls-3"/>
                </g>
                <g id="Polygon_1">
                    <path id="Path_6022" d="M13.92 9.5H2.08a.5.5 0 0 1-.39-.813l5.92-7.4a.5.5 0 0 1 .78 0l5.92 7.4a.5.5 0 0 1-.39.812z" class="cls-2" transform="rotate(90 7 16)"/>
                    <path id="Path_6023" d="M8 1.6L2.08 9h11.84L8 1.6m0-1a.994.994 0 0 1 .78.375l5.92 7.4A1 1 0 0 1 13.92 10H2.08a1 1 0 0 1-.78-1.625L7.22.976A.994.994 0 0 1 8 .6z" class="cls-2" transform="rotate(90 7 16)"/>
                </g>
            </g>
            <g id="Component_8_1" transform="translate(20 427)">
                <g id="Group_143">
                    <g id="Ellipse_6-2" fill="none" stroke="#fff">
                        <circle cx="10.5" cy="10.5" r="10.5" class="cls-39"/>
                        <circle cx="10.5" cy="10.5" r="10" class="cls-3"/>
                    </g>
                    <g id="Polygon_1-2">
                        <path id="Path_6024" d="M8.057 6.5H1.943a.5.5 0 0 1-.407-.791l3.057-4.28a.5.5 0 0 1 .814 0L8.464 5.71a.5.5 0 0 1-.407.79z" class="cls-2" transform="rotate(90 4.5 10.5)"/>
                        <path id="Path_6025" d="M5 1.72L1.943 6h6.114L5 1.72m0-1a.994.994 0 0 1 .814.42L8.87 5.418A1 1 0 0 1 8.057 7H1.943a1 1 0 0 1-.813-1.581l3.057-4.28A.993.993 0 0 1 5 .72z" class="cls-2" transform="rotate(90 4.5 10.5)"/>
                    </g>
                </g>
            </g>
            <g id="Component_9_1" transform="translate(24 478)">
                <path id="Path_5" fill="#0b0d0f" d="M13.9 2.821A5.541 5.541 0 0 0 9.083 0H8.068a5.517 5.517 0 0 0-4.806 2.821 5.386 5.386 0 0 0-.7 2.687v3.418a3.334 3.334 0 0 0 3.267 3.254.51.51 0 0 0 .522-.522V5.836a.51.51 0 0 0-.522-.522 3.188 3.188 0 0 0-2.239.94v-.761a4.481 4.481 0 0 1 4.493-4.478H9.1a4.481 4.481 0 0 1 4.478 4.478v.761a3.161 3.161 0 0 0-2.239-.94.51.51 0 0 0-.522.522v5.836a.51.51 0 0 0 .522.522 3.357 3.357 0 0 0 3.269-3.269V5.508a5.468 5.468 0 0 0-.708-2.687z" transform="translate(-2.56)"/>
            </g>
            <g id="Component_13_1" fill="#111" font-family="ArialMT, Arial" transform="translate(14 691)">
                <text id="A" font-size="12px" transform="translate(0 17.25)">
                    <tspan x="0" y="0">A</tspan>
                </text>
                <text id="A-2" font-size="18px" transform="translate(12.5 16)">
                    <tspan x="0" y="0">A</tspan>
                </text>
            </g>
            <g id="Component_15_1" transform="translate(18 791)">
                <path id="twitter" d="M24.615 50.368a10.521 10.521 0 0 1-2.908.8 5.018 5.018 0 0 0 2.22-2.789 10.084 10.084 0 0 1-3.2 1.222A5.046 5.046 0 0 0 12 53.048a5.2 5.2 0 0 0 .117 1.151 14.284 14.284 0 0 1-10.4-5.278 5.048 5.048 0 0 0 1.551 6.745 4.984 4.984 0 0 1-2.28-.622v.056a5.07 5.07 0 0 0 4.043 4.958 5.037 5.037 0 0 1-1.323.166 4.462 4.462 0 0 1-.955-.086 5.094 5.094 0 0 0 4.715 3.515 10.14 10.14 0 0 1-6.26 2.147A9.456 9.456 0 0 1 0 65.735 14.207 14.207 0 0 0 7.742 68 14.264 14.264 0 0 0 22.1 53.64c0-.223-.008-.438-.018-.652a10.067 10.067 0 0 0 2.533-2.62z" class="cls-1" transform="translate(0 -48)"/>
            </g>
            <g id="Component_14_1" transform="translate(21 741)">
                <path id="Path_19-2" d="M18.9 0H1.1A1.1 1.1 0 0 0 0 1.1v17.8A1.1 1.1 0 0 0 1.1 20h17.8a1.1 1.1 0 0 0 1.1-1.1V1.1A1.1 1.1 0 0 0 18.9 0zm0 0" class="cls-1"/>
                <path id="Path_20" d="M212.723 94.3v-7.731h2.607l.391-3.027h-3v-1.928c0-.874.243-1.47 1.5-1.47h1.589v-2.7a21.357 21.357 0 0 0-2.329-.119 3.637 3.637 0 0 0-3.882 3.99v2.228H207v3.027h2.6v7.73zm0 0" class="cls-2" transform="translate(-198.914 -74.304)"/>
            </g>
            <g id="whatsapp" transform="translate(21 841)">
                <path id="Path_21" d="M10 0a9.994 9.994 0 0 0-8.1 15.861L.657 19.576 4.5 18.348A10 10 0 1 0 10 0z" class="cls-1"/>
                <path id="Path_22" d="M120.9 128.578a3.315 3.315 0 0 1-2.3 1.7c-.612.134-1.412.241-4.106-.906-3.445-1.465-5.663-5.059-5.836-5.292a6.97 6.97 0 0 1-1.392-3.63 3.885 3.885 0 0 1 1.2-2.929 1.677 1.677 0 0 1 1.2-.432c.145 0 .275.008.393.014.344.015.517.036.744.594.283.7.971 2.427 1.053 2.6a.733.733 0 0 1 .05.651 2.08 2.08 0 0 1-.379.552c-.173.2-.337.361-.51.581a.576.576 0 0 0-.138.749 10.646 10.646 0 0 0 1.9 2.427 8.572 8.572 0 0 0 2.746 1.743.727.727 0 0 0 .826-.134 14.543 14.543 0 0 0 .916-1.246.645.645 0 0 1 .841-.262c.316.113 1.991.963 2.336 1.139s.571.262.655.411a3.073 3.073 0 0 1-.2 1.67z" class="cls-10" transform="translate(-104.121 -113.658)"/>
            </g>
            <g id="camera-2" transform="translate(21 890.926)">
                <g id="Group_415-2">
                    <g id="Group_414-2">
                        <path id="Path_34-2" d="M18.265 47.117a2.031 2.031 0 0 0-1.491-.629h-2.981v-.036a1.613 1.613 0 0 0-.485-1.167 1.643 1.643 0 0 0-1.167-.485H6.753a1.656 1.656 0 0 0-1.67 1.652v.036H2.119a2.031 2.031 0 0 0-1.491.629A2.135 2.135 0 0 0 0 48.607v8.944a2.031 2.031 0 0 0 .629 1.491 2.135 2.135 0 0 0 1.491.629h14.654a2.031 2.031 0 0 0 1.491-.629 2.135 2.135 0 0 0 .629-1.491v-8.944a2.031 2.031 0 0 0-.629-1.49zm-.305 10.434h-.018a1.165 1.165 0 0 1-1.167 1.167H2.119a1.165 1.165 0 0 1-1.167-1.167v-8.944a1.165 1.165 0 0 1 1.167-1.167h3.466a.483.483 0 0 0 .485-.485v-.521a.676.676 0 0 1 .7-.7h5.37a.676.676 0 0 1 .7.7v.521a.483.483 0 0 0 .485.485h3.466a1.165 1.165 0 0 1 1.167 1.167z" class="cls-2" transform="translate(0 -44.8)"/>
                        <path id="Path_35-2" d="M116.418 130.8a4.415 4.415 0 1 0 3.125 1.293 4.415 4.415 0 0 0-3.125-1.293zm2.443 6.879a3.469 3.469 0 0 1-4.885 0 3.433 3.433 0 0 1-1.006-2.442 3.51 3.51 0 0 1 1.006-2.443 3.433 3.433 0 0 1 2.443-1.006 3.51 3.51 0 0 1 2.443 1.006 3.433 3.433 0 0 1 1.006 2.443 3.361 3.361 0 0 1-1.007 2.442z" class="cls-2" transform="translate(-106.971 -126.939)"/>
                        <circle id="Ellipse_27-2" cx=".88" cy=".88" r=".88" class="cls-2" transform="translate(14.96 3.843)"/>
                    </g>
                </g>
            </g>
            <g id="search" transform="translate(22 936)">
                <path id="search-2" d="M12.109 10.652a6.728 6.728 0 1 0-1.458 1.458l4.391 4.39 1.458-1.456zm-5.409.694a4.641 4.641 0 1 1 4.641-4.641A4.641 4.641 0 0 1 6.7 11.346z" class="cls-2" transform="translate(0 -.002)"/>
            </g>
            <path id="search-3" d="M12.109 10.652a6.728 6.728 0 1 0-1.458 1.458l4.391 4.39 1.458-1.456zm-5.409.694a4.641 4.641 0 1 1 4.641-4.641A4.641 4.641 0 0 1 6.7 11.346z" class="cls-11" transform="translate(22 982.51)"/>
            <g id="copy" transform="translate(23 1029.471)">
                <path id="copy-2" fill="#9c9c9c" d="M5.641 0h6.735A2.824 2.824 0 0 1 15.2 2.821v9.555a2.824 2.824 0 0 1-2.824 2.824H5.641a2.824 2.824 0 0 1-2.821-2.821V2.821A2.824 2.824 0 0 1 5.641 0zm6.735 13.786a1.412 1.412 0 0 0 1.41-1.41V2.821a1.412 1.412 0 0 0-1.41-1.41H5.641a1.412 1.412 0 0 0-1.41 1.41v9.555a1.412 1.412 0 0 0 1.41 1.41zM0 4.584v10.648a2.824 2.824 0 0 0 2.821 2.821h7.828a.7.7 0 0 0 0-1.41H2.821a1.412 1.412 0 0 1-1.41-1.41V4.584a.705.705 0 0 0-1.41 0zm0 0"/>
            </g>
            <g id="share_pop-up_whatsapp" transform="translate(17 1078)">
                <rect id="Rectangle_1015" width="28" height="28" fill="#1bd741" rx="2"/>
                <g id="Group_1230" transform="translate(4.208 4.198)">
                    <path id="Path_2211" d="M68.494 87.926l1.372-4.871a9.775 9.775 0 1 1 3.652 3.578zm5.28-3.072l.3.183a8.118 8.118 0 1 0-2.613-2.555l.2.314-.79 2.805z" class="cls-2" transform="translate(-68.494 -68.321)"/>
                    <path id="Path_2212" d="M149.8 152.861l-.635-.035a.767.767 0 0 0-.545.187 2.891 2.891 0 0 0-.951 1.457 4.415 4.415 0 0 0 1.024 3.461 10.3 10.3 0 0 0 5.55 4.035 2.7 2.7 0 0 0 2.29-.283 2.049 2.049 0 0 0 .891-1.3l.1-.473a.329.329 0 0 0-.184-.367l-2.145-.988a.329.329 0 0 0-.4.1l-.842 1.091a.241.241 0 0 1-.271.081 6.593 6.593 0 0 1-3.568-3.053.243.243 0 0 1 .031-.271l.8-.931a.329.329 0 0 0 .054-.344l-.924-2.163a.329.329 0 0 0-.275-.2z" class="cls-2" transform="translate(-142.738 -147.633)"/>
                </g>
            </g>
            <g id="share_pop-up_twitter" transform="translate(17 1136)">
                <g id="Rectangle_1018">
                    <path id="Path_6026" d="M0 0h22v21H0z" class="cls-2" transform="translate(3 4)"/>
                    <path id="Path_6027" d="M.5.5h21v20H.5z" class="cls-14" transform="translate(3 4)"/>
                </g>
                <path id="social-media_1_" fill="#5aa9e0" d="M25.981 0H2.019A2.019 2.019 0 0 0 0 2.019v23.962A2.019 2.019 0 0 0 2.019 28h23.962A2.019 2.019 0 0 0 28 25.981V2.019A2.019 2.019 0 0 0 25.981 0zm-5.589 10.916q.009.207.009.415a9.138 9.138 0 0 1-14.068 7.7 6.536 6.536 0 0 0 .766.044 6.448 6.448 0 0 0 3.992-1.375 3.217 3.217 0 0 1-3-2.232 3.2 3.2 0 0 0 1.451-.055 3.214 3.214 0 0 1-2.578-3.15v-.041a3.191 3.191 0 0 0 1.455.4 3.216 3.216 0 0 1-.995-4.29 9.123 9.123 0 0 0 6.624 3.358 3.215 3.215 0 0 1 5.476-2.93 6.445 6.445 0 0 0 2.041-.78 3.226 3.226 0 0 1-1.415 1.778A6.409 6.409 0 0 0 22 9.252a6.53 6.53 0 0 1-1.608 1.664zm0 0"/>
            </g>
            <g id="share_pop-up_fb" transform="translate(17 1194)">
                <path id="Path_19-3" fill="#1a9ef9" d="M26.454 0H1.544A1.545 1.545 0 0 0 0 1.546v24.91A1.545 1.545 0 0 0 1.546 28h24.908A1.545 1.545 0 0 0 28 26.455V1.544A1.545 1.545 0 0 0 26.454 0zm0 0"/>
                <path id="Path_20-2" d="M215.012 101.1V90.267h3.65l.547-4.238h-4.2v-2.7c0-1.224.34-2.058 2.1-2.058h2.225v-3.78a29.9 29.9 0 0 0-3.261-.167c-3.227 0-5.435 1.969-5.435 5.586v3.119H207v4.238h3.637V101.1zm0 0" class="cls-2" transform="translate(-195.68 -73.096)"/>
            </g>
            <g id="share_pop-up_linkedin" transform="translate(17 1252.371)">
                <g id="Rectangle_1017">
                    <path id="Path_6028" d="M0 0h23v23H0z" class="cls-2" transform="translate(2.627 2.628)"/>
                    <path id="Path_6029" d="M.5.5h22v22H.5z" class="cls-14" transform="translate(2.627 2.628)"/>
                </g>
                <path id="social-media" fill="#127db8" d="M25.981 0H2.019A2.019 2.019 0 0 0 0 2.019v23.962A2.019 2.019 0 0 0 2.019 28h23.962A2.019 2.019 0 0 0 28 25.981V2.019A2.019 2.019 0 0 0 25.981 0zM9.932 21.164h-3.41V10.906h3.41zM8.227 9.505H8.2a1.777 1.777 0 1 1 .05-3.544 1.778 1.778 0 1 1-.023 3.544zm14 11.659h-3.41v-5.488c0-1.379-.494-2.32-1.727-2.32a1.867 1.867 0 0 0-1.75 1.244 2.335 2.335 0 0 0-.112.832v5.729h-3.409s.045-9.3 0-10.258h3.409v1.452a3.385 3.385 0 0 1 3.072-1.69c2.243 0 3.925 1.466 3.925 4.617zm0 0"/>
            </g>
            <g id="Account" transform="translate(23 1311)">
                <path id="Path_2237" d="M12 12a4 4 0 1 0-4-4 4 4 0 0 0 4 4zm0 2c-2.67 0-8 1.34-8 4v2h16v-2c0-2.66-5.33-4-8-4z" class="cls-18" transform="translate(-4 -4)"/>
            </g>
            <g id="clear-24px" transform="translate(19 1357)">
                <path id="Path_2238" fill="#1692c9" d="M19 6.41L17.59 5 12 10.59 6.41 5 5 6.41 10.59 12 5 17.59 6.41 19 12 13.41 17.59 19 19 17.59 13.41 12z"/>
                <path id="Path_2239" d="M0 0h24v24H0z" class="cls-3"/>
            </g>
            <g id="Close" transform="translate(24 1411)">
                <path id="Path_2238-2" d="M19 6.41L17.59 5 12 10.59 6.41 5 5 6.41 10.59 12 5 17.59 6.41 19 12 13.41 17.59 19 19 17.59 13.41 12z" class="cls-18" transform="translate(-5 -5)"/>
            </g>
            <g id="Group_1908" transform="translate(-11363 20340)">
                <g id="Rectangle_148" class="cls-20" transform="translate(11379 -18885)">
                    <rect width="29" height="27" class="cls-39" rx="2"/>
                    <rect width="28" height="26" x=".5" y=".5" class="cls-3" rx="1.5"/>
                </g>
                <path id="twitter-2" d="M17.231 49.657a7.365 7.365 0 0 1-2.035.558 3.513 3.513 0 0 0 1.554-1.952 7.059 7.059 0 0 1-2.24.855 3.532 3.532 0 0 0-6.11 2.415 3.637 3.637 0 0 0 .082.806A10 10 0 0 1 1.2 48.644a3.533 3.533 0 0 0 1.086 4.721 3.488 3.488 0 0 1-1.6-.435v.039a3.549 3.549 0 0 0 2.83 3.471 3.525 3.525 0 0 1-.926.116 3.123 3.123 0 0 1-.669-.06 3.566 3.566 0 0 0 3.3 2.461 7.1 7.1 0 0 1-4.38 1.507A6.617 6.617 0 0 1 0 60.415 9.945 9.945 0 0 0 5.419 62a9.985 9.985 0 0 0 10.054-10.052c0-.156-.005-.307-.013-.457a7.047 7.047 0 0 0 1.771-1.834z" class="cls-1" transform="translate(11385 -18926)"/>
            </g>
            <g id="Group_1907" transform="translate(-11402 20397)">
                <g id="Rectangle_147" class="cls-20" transform="translate(11418 -18885)">
                    <rect width="29" height="27" class="cls-39" rx="2"/>
                    <rect width="28" height="26" x=".5" y=".5" class="cls-3" rx="1.5"/>
                </g>
                <g id="Group_436" transform="translate(11394 -20963)">
                    <g id="Mask_Group_101" clip-path="url(#clip-path)">
                        <g id="mail-24px" transform="translate(30 2083)">
                            <path id="Path_2256" d="M0 0h17v17H0z" class="cls-3"/>
                            <path id="Path_2257" d="M14.3 2.5H2.7A1.474 1.474 0 0 0 1.257 4l-.007 9a1.48 1.48 0 0 0 1.45 1.5h11.6a1.48 1.48 0 0 0 1.45-1.5V4a1.48 1.48 0 0 0-1.45-1.5zm0 3L8.5 9.25 2.7 5.5V4l5.8 3.75L14.3 4z" class="cls-1"/>
                        </g>
                    </g>
                </g>
            </g>
            <path id="Path_2347" d="M482.4 103.052l-2.8 1.527v.051a5.685 5.685 0 0 0 2.546.509 6.125 6.125 0 0 0 1.935-.255V93.43l-.764-.051-.967.916v8.757zm-21.79-5.7V97.1c0-2.087.051-2.291 2.291-5.295l-.051-.051-1.833 1.018h-1.375c-.713 0-.967.051-1.222.356a.974.974 0 0 0-.2.764h-.255a2.122 2.122 0 0 1-.356-1.171 2.183 2.183 0 0 1 .611-1.629 2.522 2.522 0 0 1 1.986-.611l1.986.153 1.375-.153.2.1v11.1c0 1.324-.051 1.731-2.9 4.48l.051.1 2.546-.764h1.578V90.375h.764v6.975h2.851v-5.04l3.615-1.986.2.1-.407 3v11.1l1.735 1.276v.2l-2.647 1.731h-.2l-2.24-2.138v-6.054h-2.851v6.822l-2.138 1.426h-4.989l-.1-.2c1.935-2.393 2.087-3.106 2.087-4.48V99.59h-3.207l-.051-.2 1.416-1.99h1.731zm16.29 2.391a5.645 5.645 0 0 0 1.527 4.073 2.22 2.22 0 0 0 .56.458h.051l.611-.764v-8.756l2.647-1.426v-.051a22.386 22.386 0 0 0-2.953-.305c-1.935 0-2.7.356-3.258.916a2.3 2.3 0 0 0-.611 1.375h-.407a4.519 4.519 0 0 1-.3-1.527 3.1 3.1 0 0 1 .916-2.291 5.291 5.291 0 0 1 3.92-1.222c1.426 0 3.768.458 5.753.458 1.375 0 1.782-.2 2.393-1.069l.255.051c-.458 2.953-1.578 3.768-3.106 3.768h-.153v11.15a5.167 5.167 0 0 0 2.8-2.444l.255.051a5.328 5.328 0 0 1-1.578 3.615 7.155 7.155 0 0 1-5.142 1.935 6.54 6.54 0 0 1-6.924-6.72 6 6 0 0 1 1.731-4.277 7.128 7.128 0 0 1 2.6-1.68l.153.2a6.873 6.873 0 0 0-1.731 4.48m15.172-.56a18.36 18.36 0 0 0-5.295-13.135 19.557 19.557 0 0 0-27.085 0 18.94 18.94 0 0 0 0 26.271 19.557 19.557 0 0 0 27.085 0 18.573 18.573 0 0 0 5.3-13.135" class="cls-22" transform="translate(-441.4 1488.4)"/>
            <g id="get_app-24px" transform="translate(22 1636)">
                <path id="Path_2274" d="M0 0h18.079v20H0z" class="cls-3"/>
                <path id="Path_2275" d="M21.471 10.059h-4.706V3H9.706v7.059H5l8.235 8.235zM5 20.647V23h16.471v-2.353z" class="cls-4" transform="translate(-4.234 -2.74)"/>
            </g>
            <g id="Group_2471" transform="translate(0 -18)">
                <g id="Ellipse_6-3" class="cls-23" transform="translate(21 1704)">
                    <circle cx="10.5" cy="10.5" r="10.5" class="cls-39"/>
                    <circle cx="10.5" cy="10.5" r="10" class="cls-3"/>
                </g>
                <g id="Polygon_1-3">
                    <path id="Path_6030" d="M8.057 6.5H1.943a.5.5 0 0 1-.407-.791l3.057-4.28a.5.5 0 0 1 .814 0L8.464 5.71a.5.5 0 0 1-.407.79z" class="cls-24" transform="rotate(90 -837 873)"/>
                    <path id="Path_6031" d="M5 1.72L1.943 6h6.114L5 1.72m0-1a.994.994 0 0 1 .814.42L8.87 5.418A1 1 0 0 1 8.057 7H1.943a1 1 0 0 1-.813-1.581l3.057-4.28A.993.993 0 0 1 5 .72z" class="cls-24" transform="rotate(90 -837 873)"/>
                </g>
            </g>
            <g id="Group_2470" transform="translate(-353 759)">
                <g id="Ellipse_6-4" class="cls-25" transform="translate(368 978)">
                    <circle cx="16.5" cy="16.5" r="16.5" class="cls-39"/>
                    <circle cx="16.5" cy="16.5" r="15.5" class="cls-3"/>
                </g>
                <g id="Polygon_1-4">
                    <path id="Path_6032" d="M13.92 9.5H2.08a.5.5 0 0 1-.39-.813l5.92-7.4a.5.5 0 0 1 .78 0l5.92 7.4a.5.5 0 0 1-.39.812z" class="cls-24" transform="rotate(90 -298 689)"/>
                    <path id="Path_6033" d="M8 1.6L2.08 9h11.84L8 1.6m0-1a.994.994 0 0 1 .78.375l5.92 7.4A1 1 0 0 1 13.92 10H2.08a1 1 0 0 1-.78-1.625L7.22.976A.994.994 0 0 1 8 .6z" class="cls-24" transform="rotate(90 -298 689)"/>
                </g>
            </g>
            <g id="fast_forward-24px" transform="translate(24 1800)">
                <path id="Path_2345" d="M16 0H0v16h16z" class="cls-3"/>
                <path id="Path_2346" d="M17.5 14l-6.557-4L17.5 6zm-6.943-8v8L4 10z" class="cls-24" transform="translate(-1.5 -2)"/>
            </g>
            <g id="fast_forward-24px-2" transform="translate(24 1846)">
                <path id="Path_2345-2" d="M0 0h16v16H0z" class="cls-3"/>
                <path id="Path_2346-2" d="M4 14l6.557-4L4 6zm6.943-8v8l6.557-4z" class="cls-24" transform="translate(-4 -2)"/>
            </g>
            <path id="Path_2451" d="M19 6.41L17.59 5 12 10.59 6.41 5 5 6.41 10.59 12 5 17.59 6.41 19 12 13.41 17.59 19 19 17.59 13.41 12z" class="cls-11" transform="translate(20 1887)"/>
            <g id="Group_2490" transform="translate(-11408 20412)">
                <path id="Path_2454" d="M13.55 25.1h3.3V11.9h-3.3zm6.6 0h3.3V11.9h-3.3z" class="cls-24" transform="translate(11420.95 -18477.9)"/>
                <g id="Ellipse_6-5" class="cls-25" transform="translate(11423 -18476)">
                    <circle cx="16.5" cy="16.5" r="16.5" class="cls-39"/>
                    <circle cx="16.5" cy="16.5" r="15.5" class="cls-3"/>
                </g>
            </g>
            <g id="Group_2497" transform="translate(0 -63)">
                <g id="Ellipse_6-6" class="cls-23" transform="translate(21 2062)">
                    <circle cx="10.5" cy="10.5" r="10.5" class="cls-39"/>
                    <circle cx="10.5" cy="10.5" r="10" class="cls-3"/>
                </g>
                <path id="Path_2454-2" d="M13.55 20.3h2.1v-8.4h-2.1zm4.2 0h2.1v-8.4h-2.1z" class="cls-24" transform="translate(14.951 2056.6)"/>
            </g>
            <g id="print-24px" transform="translate(22 2050)">
                <path id="Path_2471" d="M0 0h20v20H0z" class="cls-3"/>
                <path id="Path_2472" d="M15.619 6.9H4.4A2.369 2.369 0 0 0 2 9.237v4.678h3.2v3.119h9.613v-3.119h3.2V9.237A2.369 2.369 0 0 0 15.619 6.9zm-2.4 8.576H6.807v-3.9h6.409zm2.4-5.458a.78.78 0 1 1 .8-.78.793.793 0 0 1-.8.779zM14.818 3H5.2v3.119h9.613z" class="cls-11" transform="translate(-.011 -.017)"/>
            </g>
            <g id="Group_3725" transform="translate(-19 -36)">
                <path id="Rectangle_2775" fill="rgba(255,255,255,0)" d="M0 0h24v24H0z" transform="translate(39 2136)"/>
                <g id="Group_3725-2" transform="translate(-286.411 1935.24)">
                    <path id="Path_5595" d="M377.636 203c-1.1.741-3.9 3.672-3.7 6.937.021 3.592 3.7 6.384 3.7 6.384s3.892-3.042 3.734-6.687c0-3.328-2.495-5.672-3.734-6.634z" class="cls-22" transform="translate(-40.003)"/>
                    <path id="Path_5595-2" d="M414.875 272.206c-1.3-.251-5.357-.147-7.517 2.31-2.517 2.563-1.872 7.139-1.872 7.139s4.9.586 7.362-2.111c2.347-2.363 2.228-5.784 2.027-7.338z" class="cls-22" transform="translate(-67.085 -59.44)"/>
                    <path id="Path_5595-3" d="M329.537 279.544c2.457 2.7 7.362 2.111 7.362 2.111s.644-4.576-1.873-7.139c-2.16-2.457-6.214-2.561-7.517-2.31-.2 1.554-.32 4.975 2.028 7.338z" class="cls-22" transform="translate(0 -59.44)"/>
                </g>
            </g>
            <g id="Group_1198" transform="translate(17 520)">
                <g id="Rectangle_147-2">
                    <rect id="Rectangle" width="29" height="27" class="cls-2" rx="2"/>
                    <rect id="Rectangle-2" width="28" height="26" class="cls-27" rx="1.5" transform="translate(.5 .5)"/>
                </g>
                <g id="Group_436-2" transform="translate(7 6)">
                    <path id="Path_19-2-2" d="M14.172 0H.827A.828.828 0 0 0 0 .828v13.345A.828.828 0 0 0 .828 15h13.344a.828.828 0 0 0 .828-.828V.827A.828.828 0 0 0 14.172 0z" class="cls-1"/>
                    <path id="Path_20-2-2" d="M3.74 11.1V6.051h1.7l.26-1.979H3.74v-1.26c0-.572.159-.961.978-.961h1.039V.084A13.96 13.96 0 0 0 4.235.006 2.377 2.377 0 0 0 1.7 2.614V4.07H0v1.979h1.7V11.1z" class="cls-2" transform="translate(6.329 3.894)"/>
                </g>
            </g>
            <g id="Group_1199" transform="translate(17 577)">
                <g id="Rectangle_148-2">
                    <rect id="Rectangle-3" width="29" height="27" class="cls-2" rx="2"/>
                    <rect id="Rectangle-4" width="28" height="26" class="cls-27" rx="1.5" transform="translate(.5 .5)"/>
                </g>
                <path id="twitter-2-2" d="M17.231 1.657a7.365 7.365 0 0 1-2.035.558A3.513 3.513 0 0 0 16.75.263a7.059 7.059 0 0 1-2.24.855A3.532 3.532 0 0 0 8.4 3.533a3.637 3.637 0 0 0 .082.806A10 10 0 0 1 1.2.644a3.533 3.533 0 0 0 1.086 4.721 3.488 3.488 0 0 1-1.6-.435v.039a3.549 3.549 0 0 0 2.83 3.471 3.525 3.525 0 0 1-.926.116 3.123 3.123 0 0 1-.669-.06 3.566 3.566 0 0 0 3.3 2.461 7.1 7.1 0 0 1-4.38 1.507A6.616 6.616 0 0 1 0 12.415 9.945 9.945 0 0 0 5.419 14 9.985 9.985 0 0 0 15.473 3.948c0-.156 0-.307-.013-.457a7.047 7.047 0 0 0 1.771-1.834z" class="cls-1" transform="translate(6 7)"/>
            </g>
            <g id="Group_1200" transform="translate(17 634)">
                <g id="Rectangle_149">
                    <rect id="Rectangle-5" width="29" height="27" class="cls-2" rx="2"/>
                    <rect id="Rectangle-6" width="28" height="26" class="cls-27" rx="1.5" transform="translate(.5 .5)"/>
                </g>
                <g id="whatsapp-2" transform="translate(8 7)">
                    <path id="Path_21-2" d="M6.993 0a7 7 0 0 0-5.667 11.1l-.873 2.6 2.691-.86A7 7 0 1 0 6.993 0z" class="cls-1" transform="translate(.007)"/>
                    <path id="Path_22-2" d="M8.643 7.171a2.1 2.1 0 0 1-1.459 1.06c-.388.084-.9.15-2.6-.565a9.354 9.354 0 0 1-3.7-3.3A4.315 4.315 0 0 1 0 2.1 2.409 2.409 0 0 1 .761.271 1.073 1.073 0 0 1 1.521 0a2.408 2.408 0 0 1 .249.009c.218.009.328.023.472.371.179.437.616 1.515.668 1.626a.451.451 0 0 1 .032.407 1.3 1.3 0 0 1-.241.345c-.11.128-.214.225-.323.363-.1.119-.214.247-.087.468A6.66 6.66 0 0 0 3.5 5.1a5.454 5.454 0 0 0 1.74 1.091.466.466 0 0 0 .524-.084 9.093 9.093 0 0 0 .581-.778.413.413 0 0 1 .533-.163c.2.07 1.263.6 1.481.711s.362.163.415.256a1.89 1.89 0 0 1-.131 1.038z" class="cls-10" transform="translate(2.673 2.916)"/>
                </g>
            </g>
            <path id="Path_2168" fill="none" stroke="#fff" stroke-width="1.2px" d="M12 12a4 4 0 1 0-4-4 4 4 0 0 0 4 4zm0 2c-2.67 0-8 1.34-8 4v2h16v-2c0-2.66-5.33-4-8-4z" transform="translate(20.027 2246)"/>
            <g id="gallery_1_" transform="translate(24 2293.387)">
                <g id="Group_3650" transform="translate(0 2.612)">
                    <g id="Group_3649">
                        <path id="Path_2330" d="M12.546 112.327H1.636A1.636 1.636 0 0 0 0 113.963v6.909a1.636 1.636 0 0 0 1.636 1.636h10.91a1.636 1.636 0 0 0 1.636-1.636v-6.909a1.636 1.636 0 0 0-1.636-1.636zm-3.336 5.336a.346.346 0 0 1-.155.155l-3.473 2.036a.309.309 0 0 1-.182.055l-.164-.055a.327.327 0 0 1-.145-.309v-4.073a.327.327 0 0 1 .145-.309.309.309 0 0 1 .345 0l3.474 2.037a.346.346 0 0 1 .154.463z" class="cls-29" transform="translate(0 -108.509)"/>
                        <path id="Path_2331" d="M43.727 60.809h10.454a.364.364 0 1 0 0-.727H43.727a.364.364 0 0 0 0 .727z" class="cls-29" transform="translate(-41.854 -58.082)"/>
                        <path id="Path_2332" d="M88.135 3.339h7.345a.364.364 0 1 0 0-.727h-7.345a.364.364 0 1 0 0 .727z" class="cls-29" transform="translate(-84.716 -2.612)"/>
                    </g>
                </g>
            </g>
            <g id="Group_3117" transform="translate(21.002 2340)">
                <path id="Path_5701" d="M11.548 1.008C17.347 1.008 21 4.7 21 10.5s-6.239 7.563-12.038 7.563S-.271 16.3-.271 10.5c0-2 .026-4.361 1.4-6.029C3.166 1.982 7.75 1.008 11.548 1.008z" class="cls-2" transform="translate(.998 1)"/>
                <path id="Path_2466" d="M470.97 93.893l-1.658.9v.03a3.365 3.365 0 0 0 1.507.3 3.625 3.625 0 0 0 1.145-.15V88.2l-.452-.03-.571.543V93.9zm-12.9-3.375v-.15c0-1.236.03-1.356 1.356-3.134l-.03-.03-1.085.6h-.811c-.422 0-.571.03-.723.211a.577.577 0 0 0-.121.452h-.15a1.257 1.257 0 0 1-.211-.693 1.292 1.292 0 0 1 .361-.963 1.493 1.493 0 0 1 1.175-.361l1.175.09.814-.09.121.06v6.57c0 .785-.03 1.024-1.718 2.652l.03.06 1.507-.452h.934v-8.95h.452v4.129h1.688v-2.985l2.141-1.175.121.06-.241 1.778v6.57l1.025.753v.121l-1.567 1.024h-.122l-1.325-1.265v-3.586h-1.69v4.038l-1.266.844h-2.953l-.06-.121c1.145-1.416 1.236-1.838 1.236-2.652v-2.079h-1.9l-.03-.121.844-1.175h1.024zm9.644 1.416a3.342 3.342 0 0 0 .9 2.411 1.315 1.315 0 0 0 .332.271h.03l.361-.452v-5.183l1.567-.844v-.03a13.248 13.248 0 0 0-1.749-.181c-1.145 0-1.6.211-1.929.543a1.361 1.361 0 0 0-.362.814h-.241a2.676 2.676 0 0 1-.181-.9 1.833 1.833 0 0 1 .543-1.356 3.13 3.13 0 0 1 2.315-.727c.844 0 2.23.271 3.4.271.814 0 1.055-.121 1.416-.633l.15.03c-.271 1.749-.934 2.23-1.838 2.23h-.09v6.6A3.058 3.058 0 0 0 474 93.355l.15.03a3.154 3.154 0 0 1-.934 2.141 4.236 4.236 0 0 1-3.044 1.145 3.871 3.871 0 0 1-4.1-3.978 3.553 3.553 0 0 1 1.025-2.531 4.219 4.219 0 0 1 1.537-1l.09.121a4.067 4.067 0 0 0-1.024 2.657m8.981-.332a10.868 10.868 0 0 0-3.134-7.775 11.574 11.574 0 0 0-16.032 0 11.212 11.212 0 0 0 0 15.55 11.576 11.576 0 0 0 16.033 0 10.994 10.994 0 0 0 3.134-7.775" class="cls-22" transform="translate(-454.393 -80.605)"/>
            </g>
            <g id="Group_3117-2" transform="translate(16 2392)">
                <path id="Path_5702" d="M18.03 3.271c3.664 0 7.3.85 9.672 2.467C30.287 7.486 31 10.6 31 15.5c0 8.56-8.326 11.135-16.886 11.135S1.457 24.771 1.457 16.211c0-2.6-.189-5.543 1.265-7.621 2.728-3.922 9.35-5.319 15.308-5.319z" class="cls-2"/>
                <path id="Path_2466-2" d="M478.505 99.933l-2.411 1.315v.044a4.895 4.895 0 0 0 2.192.438 5.273 5.273 0 0 0 1.666-.218V91.65l-.658-.044-.83.79v7.54zm-18.762-4.91V94.8c0-1.8.044-1.972 1.972-4.559l-.044-.044-1.578.877h-1.181c-.613 0-.83.044-1.052.307a.839.839 0 0 0-.175.658h-.218a1.827 1.827 0 0 1-.307-1.008 1.879 1.879 0 0 1 .526-1.4 2.172 2.172 0 0 1 1.71-.526l1.71.131 1.183-.131.175.088v9.556c0 1.142-.044 1.49-2.5 3.858l.044.088 2.192-.658h1.359V89.019h.658v6h2.455v-4.34l3.114-1.71.175.088-.35 2.586v9.557l1.49 1.1v.175l-2.28 1.49h-.177l-1.929-1.841v-5.216h-2.458v5.874l-1.841 1.228h-4.3l-.088-.175c1.666-2.06 1.8-2.674 1.8-3.858v-3.025h-2.758l-.044-.175 1.228-1.71h1.49zm14.028 2.06a4.86 4.86 0 0 0 1.315 3.507 1.912 1.912 0 0 0 .482.394h.044l.526-.658v-7.538l2.28-1.228v-.044a19.274 19.274 0 0 0-2.543-.263c-1.666 0-2.323.307-2.8.79a1.979 1.979 0 0 0-.526 1.183h-.351a3.892 3.892 0 0 1-.263-1.315 2.667 2.667 0 0 1 .79-1.972 4.553 4.553 0 0 1 3.374-1.052c1.228 0 3.243.394 4.953.394 1.183 0 1.534-.175 2.06-.92l.218.044c-.394 2.543-1.359 3.243-2.674 3.243h-.131v9.6a4.449 4.449 0 0 0 2.411-2.1l.218.044a4.588 4.588 0 0 1-1.359 3.114 6.162 6.162 0 0 1-4.427 1.666 5.631 5.631 0 0 1-5.962-5.786 5.168 5.168 0 0 1 1.49-3.682 6.137 6.137 0 0 1 2.236-1.447l.131.175a5.917 5.917 0 0 0-1.491 3.858m13.063-.482a15.809 15.809 0 0 0-4.564-11.308 16.836 16.836 0 0 0-23.319 0 16.308 16.308 0 0 0 0 22.619 16.838 16.838 0 0 0 23.32 0 15.99 15.99 0 0 0 4.559-11.309" class="cls-22" transform="translate(-454.393 -80.605)"/>
            </g>
            <g id="united-states" transform="translate(26 2496)">
                <circle id="Ellipse_425" cx="6" cy="6" r="6" fill="#f0f0f0"/>
                <g id="Group_4205" transform="translate(.207 1.304)">
                    <path id="Path_5722" d="M244.87 190.782h6.261a6.007 6.007 0 0 0-.207-1.565h-6.054z" class="cls-31" transform="translate(-239.338 -186.087)"/>
                    <path id="Path_5723" d="M244.87 57.217h5.38a6.032 6.032 0 0 0-1.384-1.565h-4z" class="cls-31" transform="translate(-239.338 -55.652)"/>
                    <path id="Path_5724" d="M100.379 457.652a5.974 5.974 0 0 0 3.735-1.3h-7.47a5.974 5.974 0 0 0 3.735 1.3z" class="cls-31" transform="translate(-94.586 -446.957)"/>
                    <path id="Path_5725" d="M9.493 324.347h10.239a5.964 5.964 0 0 0 .674-1.565H8.819a5.964 5.964 0 0 0 .674 1.565z" class="cls-31" transform="translate(-8.819 -316.521)"/>
                </g>
                <path id="Path_5726" fill="#0052b4" d="M2.779.937h.547l-.509.369.194.6-.511-.371L2 1.9l.168-.516A6.033 6.033 0 0 0 1 2.685h.175L.85 2.92q-.075.126-.15.256l.155.476-.288-.21q-.108.228-.2.466l.17.524h.629l-.5.368.194.6-.509-.369-.3.221A6.058 6.058 0 0 0 0 6h6V0a5.972 5.972 0 0 0-3.221.937zM3.012 5.4L2.5 5.031 2 5.4l.194-.6-.514-.367h.629l.194-.6.194.6h.629l-.509.367zm-.195-2.346l.194.6-.511-.371-.509.369.194-.6-.5-.367h.629l.194-.6.194.6h.629zM5.164 5.4l-.509-.369-.508.369.194-.6-.509-.369h.629l.194-.6.194.6h.629L4.97 4.8zM4.97 3.054l.194.6-.509-.369-.509.369.194-.6-.509-.369h.629l.194-.6.194.6h.629zm0-1.748l.194.6-.509-.369-.508.363.194-.6-.509-.363h.629l.194-.6.194.6h.629z"/>
            </g>
            <g id="Mask_Group_223" clip-path="url(#clip-path-2)" transform="translate(-20)">
                <g id="india" transform="translate(43 2365.725)">
                    <path id="Path_5703" fill="#fab446" d="M18.315 92.276H0v-3.684a.316.316 0 0 1 .316-.316H18a.316.316 0 0 1 .316.316v3.684z"/>
                    <path id="Path_5704" fill="#73af00" d="M18 315.909H.316a.316.316 0 0 1-.316-.316v-3.684h18.315v3.684a.316.316 0 0 1-.315.316z" transform="translate(0 -215.633)"/>
                    <path id="Rectangle_3597" d="M0 0h18.315v4H0z" class="cls-36" transform="translate(0 92.276)"/>
                    <g id="Group_4204" transform="translate(7.46 92.578)">
                        <path id="Path_5705" d="M210.249 211.948a1.7 1.7 0 1 1 1.7-1.7 1.7 1.7 0 0 1-1.7 1.7zm0-3.079a1.382 1.382 0 1 0 1.382 1.382 1.382 1.382 0 0 0-1.382-1.382z" class="cls-37" transform="translate(-208.552 -208.553)"/>
                        <circle id="Ellipse_422" cx=".192" cy=".192" r=".192" class="cls-37" transform="translate(1.505 1.505)"/>
                        <path id="Path_5706" d="M214.505 253.921l-.489.049-1.05-.049v-.058l1.05-.049.489.049z" class="cls-37" transform="translate(-212.808 -252.195)"/>
                        <path id="Path_5707" d="M256 253.921l.489.049 1.05-.049v-.058l-1.05-.049-.489.049z" class="cls-37" transform="translate(-254.303 -252.195)"/>
                        <path id="Path_5708" d="M253.862 214.506l-.049-.489.049-1.05h.058l.049 1.05-.049.489z" class="cls-37" transform="translate(-252.194 -212.809)"/>
                        <path id="Path_5709" d="M253.862 256l-.049.489.049 1.05h.058l.049-1.05-.049-.489z" class="cls-37" transform="translate(-252.194 -254.304)"/>
                        <path id="Path_5710" d="M226.089 226.13l-.381-.311-.708-.778.041-.041.778.708.311.381z" class="cls-37" transform="translate(-224.412 -224.413)"/>
                        <path id="Path_5711" d="M255.43 255.472l.311.381.778.708.041-.041-.708-.778-.381-.311z" class="cls-37" transform="translate(-253.753 -253.754)"/>
                        <path id="Path_5712" d="M255.43 226.09l.311-.381.778-.708.041.041-.708.778-.381.311z" class="cls-37" transform="translate(-253.753 -224.413)"/>
                        <path id="Path_5713" d="M226.089 255.431l-.381.311-.708.778.041.041.778-.708.311-.381z" class="cls-37" transform="translate(-224.412 -253.754)"/>
                        <path id="Path_5714" d="M217.377 255.308l-.433.233-.989.356-.022-.053.952-.448.471-.142z" class="cls-37" transform="translate(-215.669 -253.584)"/>
                        <path id="Path_5715" d="M255.713 239.429l.471-.142.952-.448-.022-.053-.989.356-.433.233z" class="cls-37" transform="translate(-254.005 -237.706)"/>
                        <path id="Path_5716" d="M239.375 217.378l-.233-.433-.356-.989.053-.022.448.952.142.471z" class="cls-37" transform="translate(-237.704 -215.67)"/>
                        <path id="Path_5717" d="M255.254 255.714l.142.471.448.952.053-.022-.356-.989-.233-.433z" class="cls-37" transform="translate(-253.583 -254.006)"/>
                        <path id="Path_5718" d="M217.355 239.429l-.471-.142-.952-.448.022-.053.989.356.433.233z" class="cls-37" transform="translate(-215.669 -237.706)"/>
                        <path id="Path_5719" d="M255.691 255.308l.433.233.989.356.022-.053-.952-.448-.471-.142z" class="cls-37" transform="translate(-254.005 -253.584)"/>
                        <path id="Path_5720" d="M255.254 217.356l.142-.471.448-.952.053.022-.356.989-.233.433z" class="cls-37" transform="translate(-253.583 -215.67)"/>
                        <path id="Path_5721" d="M239.375 255.692l-.233.433-.356.989.053.022.448-.952.142-.471z" class="cls-37" transform="translate(-237.704 -254.006)"/>
                    </g>
                    <circle id="Ellipse_423" cx=".26" cy=".26" r=".26" class="cls-36" transform="translate(8.898 94.016)"/>
                    <circle id="Ellipse_424" cx=".156" cy=".156" r=".156" class="cls-37" transform="translate(9.002 94.12)"/>
                </g>
            </g>
            <g id="Group_4100" transform="translate(-1216.07 2099.613)">
                <g id="console" transform="translate(1237.62 105.683)">
                    <g id="Group_4087">
                        <g id="Group_4086">
                            <path id="Path_5686" fill="#fff" stroke="#fff" stroke-width="0.2px" d="M20.566 64.456A19.207 19.207 0 0 0 20 60.74a14.263 14.263 0 0 0-1.153-3.127c-1.794-3.152-3.742-2.665-6.074-2.05a16.694 16.694 0 0 1-2.358.461h-.256a16.694 16.694 0 0 1-2.359-.461c-2.332-.589-4.28-1.1-6.074 2.076a13.066 13.066 0 0 0-1.151 3.126 19.207 19.207 0 0 0-.564 3.716A6.983 6.983 0 0 0 .37 67.4a1.942 1.942 0 0 0 1.23 1.156 2.506 2.506 0 0 0 1.64-.179 12.046 12.046 0 0 0 3.281-2.332 5.658 5.658 0 0 1 3.767-1.153 5.658 5.658 0 0 1 3.767 1.153 12.046 12.046 0 0 0 3.281 2.332 2.681 2.681 0 0 0 1.64.179 1.915 1.915 0 0 0 1.23-1.179 6.853 6.853 0 0 0 .36-2.921zm-1.23 2.563a1.016 1.016 0 0 1-.615.641 1.77 1.77 0 0 1-1.051-.128A10.452 10.452 0 0 1 14.7 65.4a6.4 6.4 0 0 0-4.408-1.461 6.758 6.758 0 0 0-4.434 1.41 10.649 10.649 0 0 1-2.976 2.131 1.59 1.59 0 0 1-1.051.128 1.016 1.016 0 0 1-.615-.641 6.06 6.06 0 0 1-.256-2.46 17.678 17.678 0 0 1 .54-3.537 12.229 12.229 0 0 1 1.076-2.9c1.41-2.537 3.05-2.127 5-1.615a15.035 15.035 0 0 0 2.512.487h.384a14.848 14.848 0 0 0 2.537-.487c1.948-.487 3.588-.923 5 1.615a11.818 11.818 0 0 1 1.076 2.9 19.4 19.4 0 0 1 .538 3.537 5.93 5.93 0 0 1-.287 2.512z" transform="translate(0 -55.109)"/>
                        </g>
                    </g>
                    <g id="Group_4089" transform="translate(2.651 2.555)">
                        <g id="Group_4088">
                            <path id="Path_5687" d="M46.653 96.775a1.557 1.557 0 0 0-.923-.436 1.458 1.458 0 0 0-.41-.9l-.026-.026a1.452 1.452 0 0 0-1.051-.436 1.513 1.513 0 0 0-1.051.436 1.49 1.49 0 0 0-.436.923 1.527 1.527 0 0 0-.923.41l-.026.026a1.452 1.452 0 0 0-.436 1.051 1.513 1.513 0 0 0 .436 1.051 1.429 1.429 0 0 0 .948.436 1.367 1.367 0 0 0 .436.923 1.452 1.452 0 0 0 1.051.436 1.513 1.513 0 0 0 1.051-.436 1.557 1.557 0 0 0 .436-.923 1.367 1.367 0 0 0 .923-.436 1.452 1.452 0 0 0 .436-1.051 1.513 1.513 0 0 0-.435-1.048zm-.641 1.435a.522.522 0 0 1-.384.154h-.359a.487.487 0 0 0-.487.487v.333a.538.538 0 1 1-1.076 0v-.359a.487.487 0 0 0-.487-.487h-.359a.526.526 0 0 1-.384-.9l.026-.026a.612.612 0 0 1 .359-.128h.359a.487.487 0 0 0 .487-.487v-.359a.544.544 0 0 1 .923-.384l.026.026a.612.612 0 0 1 .128.359v.361a.487.487 0 0 0 .487.487h.359a.544.544 0 0 1 .384.923z" class="cls-2" transform="translate(-41.373 -94.981)"/>
                        </g>
                    </g>
                    <g id="Group_4091" transform="translate(13.851 2.683)">
                        <g id="Group_4090">
                            <circle id="Ellipse_380" cx=".897" cy=".897" r=".897" class="cls-2"/>
                        </g>
                    </g>
                    <g id="Group_4093" transform="translate(13.851 6.322)">
                        <g id="Group_4092">
                            <circle id="Ellipse_381" cx=".897" cy=".897" r=".897" class="cls-2"/>
                        </g>
                    </g>
                    <g id="Group_4095" transform="translate(12.031 4.502)">
                        <g id="Group_4094">
                            <circle id="Ellipse_382" cx=".897" cy=".897" r=".897" class="cls-2"/>
                        </g>
                    </g>
                    <g id="Group_4097" transform="translate(15.67 4.502)">
                        <g id="Group_4096">
                            <circle id="Ellipse_383" cx=".897" cy=".897" r=".897" class="cls-2"/>
                        </g>
                    </g>
                </g>
            </g>
            <g id="Group_5638" transform="translate(-1089.433 2121.059)">
                <g id="Page-1" transform="translate(1112.996 32.707)">
                    <g id="Artboard-Copy" transform="translate(0 .011)">
                        <g id="_126115">
                            <path id="Path" d="M16.126 1.369a.435.435 0 0 0-.429.439v11.66a2.209 2.209 0 0 1-2.18 2.233H3.038a2.209 2.209 0 0 1-2.18-2.233V.89h12.555V12.2a.429.429 0 1 0 .858 0V.451a.435.435 0 0 0-.429-.439H.429A.435.435 0 0 0 0 .451v13.014a3.078 3.078 0 0 0 3.038 3.112h10.475a3.078 3.078 0 0 0 3.038-3.112V1.809a.43.43 0 0 0-.425-.44z" class="cls-2" transform="translate(0 -.011)"/>
                            <path id="Path-2" d="M11.819 3.879a.44.44 0 0 0 0-.879H2.47a.439.439 0 1 0 0 .879z" class="cls-2" transform="translate(-.05 -.085)"/>
                            <path id="Path-3" d="M11.819 13H2.47a.439.439 0 0 0 0 .879h9.346a.439.439 0 0 0 0-.879z" class="cls-2" transform="translate(-.05 -.329)"/>
                            <path id="Shape" d="M2 5.957V10.9a.445.445 0 0 0 .429.457h4.657a.445.445 0 0 0 .429-.457V5.957a.445.445 0 0 0-.429-.457H2.429A.445.445 0 0 0 2 5.957zm.858.457h3.8v4.026h-3.8z" class="cls-2" transform="translate(-.049 -.146)"/>
                            <path id="Path-4" d="M12.013 5.5H8.929a.44.44 0 0 0 0 .879h3.084a.44.44 0 1 0 0-.879z" class="cls-2" transform="translate(-.208 -.146)"/>
                            <path id="Path-5" d="M12.013 8H8.929a.439.439 0 0 0 0 .879h3.084a.439.439 0 1 0 0-.879z" class="cls-2" transform="translate(-.208 -.207)"/>
                            <path id="Path-6" d="M12.442 10.939a.435.435 0 0 0-.429-.439H8.929a.439.439 0 1 0 0 .879h3.084a.433.433 0 0 0 .429-.44z" class="cls-2" transform="translate(-.208 -.268)"/>
                        </g>
                    </g>
                </g>
            </g>
        </g>
    </g>
</svg>
